HIERARCHY
ROOT Hips
{
	OFFSET 0.000000 0.000000 0.000000
	CHANNELS 6 Xposition Yposition Zposition Xrotation Yrotation Zrotation
	JOINT LeftUpLeg_virtual
	{
		OFFSET 0.000000 0.000000 0.000000
		CHANNELS 3 Xrotation Yrotation Zrotation
		JOINT LeftUpLeg
		{
			OFFSET 15.427100 -6.655098 0.678600
			CHANNELS 3 Xrotation Yrotation Zrotation
			JOINT LeftLeg
			{
				OFFSET 4.081073 -39.591068 13.024000
				CHANNELS 3 Xrotation Yrotation Zrotation
				JOINT LeftFoot
				{
					OFFSET -4.081074 -37.707932 -15.979700
					CHANNELS 3 Xrotation Yrotation Zrotation
					JOINT LeftToeBase
					{
						OFFSET 5.346399 -15.068900 20.645000
						CHANNELS 3 Xrotation Yrotation Zrotation
						JOINT LeftToe_End
						{
							OFFSET 2.754700 0.931300 11.300900
							CHANNELS 3 Xrotation Yrotation Zrotation
							End Site
							{
								OFFSET 0 0 0
							}
						}
					}
				}
			}
		}
	}
	JOINT RightUpLeg_virtual
	{
		OFFSET 0.000000 0.000000 0.000000
		CHANNELS 3 Xrotation Yrotation Zrotation
		JOINT RightUpLeg
		{
			OFFSET -15.569500 -6.655098 0.678600
			CHANNELS 3 Xrotation Yrotation Zrotation
			JOINT RightLeg
			{
				OFFSET -4.081825 -39.591045 13.023800
				CHANNELS 3 Xrotation Yrotation Zrotation
				JOINT RightFoot
				{
					OFFSET 4.081824 -37.707954 -15.979600
					CHANNELS 3 Xrotation Yrotation Zrotation
					JOINT RightToeBase
					{
						OFFSET -5.346400 -15.068900 20.645000
						CHANNELS 3 Xrotation Yrotation Zrotation
						JOINT RightToe_End
						{
							OFFSET -2.754700 0.931300 11.300900
							CHANNELS 3 Xrotation Yrotation Zrotation
							End Site
							{
								OFFSET 0 0 0
							}
						}
					}
				}
			}
		}
	}
	JOINT Spine_virtual
	{
		OFFSET 0.000000 0.000000 0.000000
		CHANNELS 3 Xrotation Yrotation Zrotation
		JOINT Spine
		{
			OFFSET -0.279200 12.230698 -2.892100
			CHANNELS 3 Xrotation Yrotation Zrotation
			JOINT Spine1
			{
				OFFSET -0.232667 10.192268 -1.242267
				CHANNELS 3 Xrotation Yrotation Zrotation
				JOINT Spine1_split
				{
					OFFSET -0.232667 10.192268 -1.242267
					CHANNELS 3 Xrotation Yrotation Zrotation
					JOINT Spine2
					{
						OFFSET -0.232667 10.192268 -1.242267
						CHANNELS 3 Xrotation Yrotation Zrotation
						JOINT Neck_virtual
						{
							OFFSET 0.000000 0.000000 0.000000
							CHANNELS 3 Xrotation Yrotation Zrotation
							JOINT Neck
							{
								OFFSET -0.418800 17.814194 8.416900
								CHANNELS 3 Xrotation Yrotation Zrotation
								JOINT Head
								{
									OFFSET 0.000000 7.031097 3.806800
									CHANNELS 3 Xrotation Yrotation Zrotation
									JOINT HeadTop_End
									{
										OFFSET 0.000000 24.646606 12.978600
										CHANNELS 3 Xrotation Yrotation Zrotation
										End Site
										{
											OFFSET 0 0 0
										}
									}
								}
							}
						}
						JOINT LeftShoulder_virtual
						{
							OFFSET 0.000000 0.000000 0.000000
							CHANNELS 3 Xrotation Yrotation Zrotation
							JOINT LeftShoulder
							{
								OFFSET 8.476499 7.247704 -3.868750
								CHANNELS 3 Xrotation Yrotation Zrotation
								JOINT LeftShoulder_split
								{
									OFFSET 8.476499 7.247704 -3.868750
									CHANNELS 3 Xrotation Yrotation Zrotation
									JOINT LeftArm
									{
										OFFSET 9.308998 -2.777710 0.208600
										CHANNELS 3 Xrotation Yrotation Zrotation
										JOINT LeftForeArm
										{
											OFFSET 29.972298 0.000000 0.000000
											CHANNELS 3 Xrotation Yrotation Zrotation
											JOINT LeftHand
											{
												OFFSET 26.026505 0.000000 0.000000
												CHANNELS 3 Xrotation Yrotation Zrotation
												End Site
												{
													OFFSET 0 0 0
												}
											}
										}
									}
								}
							}
						}
						JOINT RightShoulder_virtual
						{
							OFFSET 0.000000 0.000000 0.000000
							CHANNELS 3 Xrotation Yrotation Zrotation
							JOINT RightShoulder
							{
								OFFSET -7.570500 7.247704 -3.868750
								CHANNELS 3 Xrotation Yrotation Zrotation
								JOINT RightShoulder_split
								{
									OFFSET -7.570500 7.247704 -3.868750
									CHANNELS 3 Xrotation Yrotation Zrotation
									JOINT RightArm
									{
										OFFSET -9.308998 -2.777710 0.208500
										CHANNELS 3 Xrotation Yrotation Zrotation
										JOINT RightForeArm
										{
											OFFSET -29.972300 0.000000 0.000000
											CHANNELS 3 Xrotation Yrotation Zrotation
											JOINT RightHand
											{
												OFFSET -26.026505 0.000000 0.000000
												CHANNELS 3 Xrotation Yrotation Zrotation
												End Site
												{
													OFFSET 0 0 0
												}
											}
										}
									}
								}
							}
						}
					}
				}
			}
		}
	}
}
MOTION
Frames: 5
Frame Time: 0.03333333
10.178412 87.079407 -5.913361 0.000000 0.000000 0.000000 10.356145 -31.884774 -16.109324 -27.483831 -4.012641 27.284478 38.392200 3.403564 9.969342 -13.777207 30.237357 -16.292764 -1.970986 0.271107 0.200931 0.000000 0.000000 0.000000 12.436128 -30.044349 -16.770614 -26.442321 1.023641 23.421712 12.152952 2.373306 6.156865 7.276609 13.107814 -4.746902 -2.947264 1.535877 0.625529 0.000000 0.000000 0.000000 8.095270 -33.228645 -17.271312 17.324041 -5.131779 13.563583 14.094357 -0.550333 10.483002 1.552234 -1.171974 0.619509 0.000000 0.000000 0.000000 12.847605 -0.617213 9.419182 -9.194348 -6.013370 3.076228 36.708490 -14.434237 30.353033 0.000000 0.000000 0.000000 14.338982 -1.218332 9.637944 2.383714 -20.063025 -11.586245 1.018885 -1.366855 -0.416042 -35.641915 -26.706859 -56.902094 -1.008306 -14.796104 -1.359386 0.000000 0.000000 0.000000 12.258328 -1.029879 9.939692 2.391580 6.570637 11.290186 -4.553563 2.592464 -0.483769 0.264080 40.641080 26.834743 1.802983 22.792702 1.305684 0.000000 0.000000 0.000000 
10.038316 87.067451 -5.899529 0.000000 0.000000 0.000000 10.324517 -31.591121 -16.098073 -27.691674 -3.927389 27.345677 38.464504 3.320933 10.002265 -13.639540 29.939052 -16.321051 -1.912314 0.275361 0.173705 0.000000 0.000000 0.000000 12.407004 -29.664925 -16.759432 -26.488510 0.937464 23.435561 12.299951 2.321745 6.128560 7.209180 12.971399 -4.859494 -2.911488 1.504836 0.638834 0.000000 0.000000 0.000000 8.057467 -32.872509 -17.263441 17.218398 -5.204765 13.703572 14.004512 -0.611211 10.538870 1.535753 -1.182751 0.615188 0.000000 0.000000 0.000000 12.759655 -0.654896 9.470636 -9.077522 -5.960210 3.110344 36.870748 -14.580210 30.373086 0.000000 0.000000 0.000000 14.226675 -1.252373 9.672946 2.361158 -20.084530 -11.700165 0.976360 -1.402650 -0.385365 -35.331363 -27.039206 -57.177064 -1.099989 -14.977741 -1.388300 0.000000 0.000000 0.000000 12.172568 -1.065422 9.981603 2.525236 6.791247 10.759630 -4.454339 2.663529 -0.549907 0.614483 40.398554 27.101777 1.779497 23.292873 1.227723 0.000000 0.000000 0.000000 
9.886224 87.079201 -5.878120 0.000000 0.000000 0.000000 10.278412 -31.209648 -16.077470 -27.862719 -3.875756 27.369323 38.473032 3.232211 10.048358 -13.470896 29.602900 -16.364266 -1.832015 0.277586 0.129027 0.000000 0.000000 0.000000 12.367023 -29.197740 -16.735398 -26.496892 0.878593 23.443800 12.420691 2.259780 6.076495 7.127504 12.794144 -4.993298 -2.831855 1.466816 0.672578 0.000000 0.000000 0.000000 8.002005 -32.457578 -17.244833 17.104751 -5.268061 13.848725 13.909874 -0.669372 10.602746 1.513834 -1.199790 0.620949 0.000000 0.000000 0.000000 12.670885 -0.692076 9.531415 -8.970914 -5.922410 3.148006 37.035229 -14.741589 30.379715 0.000000 0.000000 0.000000 14.109672 -1.281942 9.716611 2.343464 -20.091573 -11.806281 0.944412 -1.438321 -0.364327 -34.927292 -27.315129 -57.444022 -1.199524 -15.167133 -1.420070 0.000000 0.000000 0.000000 12.084420 -1.100071 10.029247 2.669706 6.976199 10.224460 -4.351492 2.716224 -0.617023 0.967189 40.203057 27.368447 1.761433 23.807278 1.158598 0.000000 0.000000 0.000000 
9.724745 87.107979 -5.847618 0.000000 0.000000 0.000000 10.216060 -30.756998 -16.060486 -27.983136 -3.864457 27.369586 38.436292 3.147837 10.099043 -13.280770 29.257710 -16.440194 -1.746878 0.278243 0.072987 0.000000 0.000000 0.000000 12.309220 -28.651745 -16.715544 -26.459876 0.848772 23.450848 12.507075 2.179016 6.006486 7.017429 12.570348 -5.173113 -2.667958 1.424409 0.721646 0.000000 0.000000 0.000000 7.936065 -31.990420 -17.223236 16.980818 -5.324421 14.004177 13.809921 -0.725334 10.674390 1.486033 -1.221243 0.612376 0.000000 0.000000 0.000000 12.580921 -0.729852 9.602028 -8.878167 -5.900862 3.185982 37.209911 -14.911623 30.372557 0.000000 0.000000 0.000000 13.987843 -1.307983 9.769795 2.333283 -20.079144 -11.893444 0.922988 -1.472582 -0.358584 -34.442516 -27.542014 -57.699218 -1.302531 -15.358360 -1.452282 0.000000 0.000000 0.000000 11.995433 -1.134765 10.082543 2.824396 7.121778 9.679000 -4.260668 2.756494 -0.671981 1.309629 40.050723 27.636778 1.747281 24.328688 1.102179 0.000000 0.000000 0.000000 
9.560406 87.144913 -5.801167 0.000000 0.000000 0.000000 10.129381 -30.260108 -16.062045 -28.050364 -3.896974 27.357102 38.383973 3.080855 10.147916 -13.108424 28.939020 -16.532396 -1.658453 0.275609 0.014819 0.000000 0.000000 0.000000 12.234382 -28.042687 -16.716021 -26.375786 0.841430 23.455481 12.582172 2.083765 5.932448 6.904056 12.305401 -5.383668 -2.465299 1.380278 0.773207 0.000000 0.000000 0.000000 7.861451 -31.478829 -17.208766 16.849173 -5.379006 14.178847 13.702419 -0.782143 10.753049 1.444742 -1.258788 0.604833 0.000000 0.000000 0.000000 12.488283 -0.770005 9.682408 -8.797174 -5.897597 3.219149 37.401754 -15.082593 30.357240 0.000000 0.000000 0.000000 13.860949 -1.333419 9.831194 2.332596 -20.041874 -11.956797 0.906053 -1.497938 -0.376532 -33.893974 -27.725150 -57.939805 -1.399896 -15.549363 -1.480292 0.000000 0.000000 0.000000 11.907302 -1.170394 10.142290 2.989837 7.234298 9.121823 -4.181956 2.801299 -0.708998 1.612210 39.922954 27.935854 1.734871 24.827482 1.060496 0.000000 0.000000 0.000000 
